PathFileType	4	(X/Y/Z)	C:\Users\WrightLab\Desktop\Jo\P5V119.trc
DataRate	CameraRate	NumFrames	NumMarkers	Units	OrigDataRate	OrigDataStartFrame	OrigNumFrames
100.00	100.00	       21	19	mm	100.00	427	       569
Frame#	Time	Headset_Front			Headset_Back			Headset_Left			Headset_Right			Left_Shoulder			Right_Shoulder			Sternum			C7			Left Elbow			Right Elbow			Left Wrist			Right Wrist			Left ASIS			Right ASIS			S2			Left Knee			Right Knee			Left Ankle			Right Ankle			
		X1	Y1	Z1	X2	Y2	Z2	X3	Y3	Z3	X4	Y4	Z4	X5	Y5	Z5	X6	Y6	Z6	X7	Y7	Z7	X8	Y8	Z8	X9	Y9	Z9	X10	Y10	Z10	X11	Y11	Z11	X12	Y12	Z12	X13	Y13	Z13	X14	Y14	Z14	X15	Y15	Z15	X16	Y16	Z16	X17	Y17	Z17	X18	Y18	Z18	X19	Y19	Z19	

427	4.260													457.35471	1547.42615	1177.22681	55.12712	1491.46021	1263.06958	272.28879	1377.50427	1331.37183	222.01218	1545.53247	1104.90894	549.43713	1274.12207	1123.80859	-26.06360	1227.62988	1182.12512	513.27234	1203.42334	1330.64343	39.19684	1090.23254	1369.58081	445.15448	993.26276	1334.06067	152.22627	992.99573	1339.95996	299.08472	997.99969	1054.65393	502.71783	583.44446	1386.27759	158.58023	515.16290	1247.68506	556.70795	192.68130	1278.11340	281.46106	135.88220	1072.19470	
428	4.270													458.71069	1547.14172	1190.72754	55.82109	1490.93726	1269.58179	271.15030	1377.19080	1340.56165	225.53497	1545.06421	1114.34204	551.53674	1273.75024	1137.38586	-24.08687	1226.98010	1187.54858	513.67816	1202.87073	1343.94702	38.90966	1089.78491	1375.68030	445.00790	992.72675	1344.24854	151.62654	991.53632	1344.71606	302.47870	998.62555	1063.96741	500.82755	582.44403	1398.05554	157.57608	514.95966	1248.55017	560.72339	184.79759	1312.69861	281.62711	136.86034	1072.44275	
429	4.280													460.24243	1546.65454	1203.05188	55.71875	1490.44946	1276.28943	270.61292	1376.46790	1350.55554	227.17593	1545.14124	1124.00806	553.43866	1273.52612	1150.55420	-22.03165	1226.46790	1192.74329	513.32587	1201.13379	1356.10413	37.98306	1088.85364	1381.33740	444.11197	992.13177	1355.94482	150.82933	991.22253	1352.11914	306.63959	998.43359	1074.36731	499.47287	580.32251	1407.90210	155.66789	515.06055	1250.04480	562.57495	178.47900	1346.99622	281.74213	137.52176	1072.77026	
430	4.290													462.11130	1546.69116	1216.37402	56.44712	1490.18652	1282.84973	270.03577	1376.12952	1359.75232	230.70081	1544.70032	1132.82068	555.76373	1273.03296	1163.17590	-20.11336	1225.73816	1198.05884	512.80017	1200.23523	1368.89026	37.22596	1088.24670	1387.09753	443.15848	991.23975	1365.83557	150.78130	990.07300	1357.90515	310.15558	998.81915	1084.24719	497.89380	578.34845	1417.92566	154.44940	515.22504	1251.10913	563.52124	172.54153	1381.45459	281.85541	138.75821	1073.71814	
431	4.300	201.64655	1674.63562	1484.54028										463.21906	1545.89600	1228.54541	57.31610	1489.37207	1289.33801	269.15698	1375.60754	1369.42615	232.91318	1544.26953	1142.18250	557.40106	1272.72351	1176.49622	-18.22678	1225.28699	1203.19287	512.29681	1199.46985	1381.54846	36.72128	1087.19739	1392.96716	442.02667	990.50958	1376.45825	151.01930	989.36780	1363.90955	313.82672	998.88629	1094.32544	495.36832	575.21594	1425.78247	152.29366	515.66937	1252.65027	562.87836	168.38396	1415.50928	281.99792	139.81670	1074.36072	
432	4.310	199.31827	1673.87610	1493.59558										464.01962	1545.98523	1241.58545	57.08080	1488.86633	1296.27014	267.89017	1374.99768	1378.69141	235.81721	1544.22180	1152.40820	559.21436	1272.83057	1190.79724	-16.52833	1224.74719	1208.49512	511.58679	1199.10657	1394.01733	35.69418	1085.99316	1398.84412	442.54480	988.93097	1387.65161	151.25949	988.49359	1370.35925	318.25131	998.50641	1104.64636	494.18811	572.06964	1434.20276	151.15620	516.04633	1254.22021	559.36847	164.30801	1448.62268	282.34537	140.79585	1075.23621	
433	4.320	196.57709	1672.68677	1502.58557										465.76251	1545.58618	1254.91919	57.26725	1488.01172	1303.04980	267.53458	1374.52002	1389.43250	238.06781	1543.63831	1161.81506	561.15948	1272.18872	1204.08777	-14.58004	1223.89636	1213.65503	511.05539	1198.65564	1407.13843	34.76971	1085.00806	1405.02991	439.42780	989.89154	1398.85571	150.27916	988.85059	1378.78564	321.95801	998.58392	1114.21777	493.69089	568.82550	1441.49585	149.71535	516.55896	1256.22571	555.00372	162.27617	1480.85156	282.57535	142.27501	1076.65613	
434	4.330	194.34560	1671.89978	1511.99878										466.86990	1544.83191	1267.65308	57.85944	1487.41199	1309.64368	266.29462	1373.36829	1398.67896	240.61340	1542.98840	1171.54773	562.17334	1271.59094	1218.10706	-12.73599	1223.04102	1218.88135	510.61945	1198.26270	1420.21106	32.65560	1084.13269	1412.31494	437.02368	986.77380	1408.47437	150.36797	987.80536	1385.91479	326.11008	997.54150	1124.26440	492.83762	565.71808	1447.97205	148.48407	517.16815	1258.44727	549.74292	160.53351	1511.30273	282.97482	143.61111	1077.36401	
435	4.340	190.98428	1671.09521	1521.45422										467.61707	1544.17712	1280.96594	58.45008	1485.43945	1311.96191	265.29150	1373.07922	1409.53247	242.32741	1541.84460	1180.94580	563.91510	1271.06238	1230.20178	-10.50595	1222.09863	1224.13464	508.88440	1196.67261	1432.74731	32.17579	1082.46765	1416.33301	435.89954	985.71985	1418.55261	150.54890	986.58130	1392.22729	329.90622	996.90948	1133.72778	493.13058	562.40430	1454.94385	148.53120	517.39569	1260.80115	542.40851	159.69809	1539.95862	283.17847	144.77780	1078.48059	
436	4.350	188.41551	1670.13721	1530.60071										468.31873	1542.94885	1293.63477	58.58841	1484.97327	1323.35889	264.17584	1372.30725	1419.35828	245.37276	1541.53369	1190.59192	565.70166	1270.43726	1244.69519	-8.71380	1221.06128	1229.17480	508.04810	1196.37598	1445.81628	30.18370	1081.19263	1421.90649	433.70795	984.46747	1430.38489	149.17464	986.42883	1401.74329	334.10785	995.53345	1143.80017	492.93069	560.01819	1462.93530	148.57205	517.83069	1263.86377	535.28729	160.10654	1566.47253	282.93332	146.57831	1079.74158	
437	4.360	185.59637	1669.20850	1540.39343	467.83316	1080.20740	1182.23291							469.02734	1542.01233	1306.38171	59.21267	1483.77368	1330.27856	263.46393	1371.27637	1429.85193	250.31654	1539.95959	1201.40088	566.82440	1269.45422	1258.57397	-6.76988	1219.88635	1234.25574				29.49557	1079.04480	1427.15906	431.71530	983.68536	1441.69189	150.92574	980.85413	1407.10815	337.30466	994.50366	1153.70557	492.82153	556.72797	1471.05908	149.62918	517.90747	1267.17041	526.69238	160.17848	1591.24817	282.68420	148.47110	1081.19067	
438	4.370	183.09146	1667.66821	1547.31995	504.41614	1195.09314	1471.50269							469.45746	1541.09106	1319.09204	59.00361	1482.53003	1337.34607	262.40216	1370.49243	1440.71777	251.90111	1539.26172	1211.20398	567.95319	1268.15332	1271.82263	-4.53327	1218.64258	1239.32629				27.34061	1077.40088	1432.64270	430.13324	982.79907	1453.13477	148.10571	984.16089	1418.30701	342.01727	994.25800	1162.47131	491.27170	553.99231	1481.04639	150.70755	518.25305	1271.09094	517.95630	160.27779	1614.24719	282.80441	150.04427	1082.58508	
439	4.380	179.45871	1667.17810	1557.12537	502.63126	1194.41772	1485.07544							469.72263	1539.50928	1331.69739	59.98215	1480.83655	1344.24255	261.11703	1369.35608	1450.72522	254.14482	1538.28491	1221.17310	569.31396	1267.28894	1286.89783	-2.58763	1217.15344	1244.50647				24.94662	1074.92920	1435.73108	428.21506	981.30402	1464.61389	147.66876	983.04401	1426.09351	346.85172	993.58228	1172.26318	489.30441	552.46735	1492.28137	152.02629	518.67010	1275.57776	507.95047	159.26506	1633.38977	282.53076	152.25462	1085.15381	
440	4.390	176.24622	1666.04041	1566.78625	501.11746	1194.19031	1498.43469							470.26389	1538.64624	1344.51758	60.63661	1479.03516	1351.29260	260.17007	1368.36816	1461.48425	255.96030	1537.30273	1230.63440	569.71429	1266.46277	1299.66089	-0.02388	1215.54297	1249.18958				23.38132	1071.45703	1439.23230	426.34799	980.53418	1476.23071	146.32040	982.89117	1435.85437	349.52850	992.44055	1183.58643	485.95306	551.37915	1504.70935	154.63838	518.45502	1280.50208	497.61182	157.85573	1650.66589	282.64188	153.91574	1087.11414	
441	4.400	173.50700	1664.78882	1574.79260	498.55850	1193.66345	1511.27515							470.72583	1537.96558	1356.22327	61.17700	1477.33289	1358.17297	259.05685	1367.59363	1471.44434	257.87268	1535.93091	1240.73218	570.62158	1265.44153	1313.87537	2.74804	1213.77356	1254.17468				19.34297	1070.62463	1446.32886	425.18695	979.08417	1487.89050	146.37985	980.52698	1444.26904	352.73407	990.88135	1193.76367	482.72562	550.62762	1518.56226	156.76616	519.11316	1286.03638	488.92133	155.84677	1664.75708	282.51743	155.92322	1089.25989	
442	4.410	169.84111	1663.58997	1583.50403	496.25806	1193.75891	1524.21643							470.13385	1537.08252	1368.70459	61.39268	1475.76563	1365.18335	257.58203	1366.34583	1482.40393	259.50925	1534.42566	1250.66138	570.85602	1264.97363	1328.46704	5.29263	1212.04797	1259.27454				16.80853	1068.66260	1452.16394	423.67380	978.55914	1499.93005	145.20258	979.78680	1453.60547	355.76114	989.29883	1204.77893	478.46124	548.71393	1533.81128	159.72330	519.45941	1292.18152	480.96298	152.96745	1677.27917	282.76190	158.63789	1091.80505	
443	4.420	166.16959	1661.85571	1591.85754	493.39148	1193.39954	1537.88123							470.38846	1536.60278	1380.32544	61.89296	1473.43152	1367.98364	256.53320	1365.51318	1492.55579	262.01624	1532.39050	1260.41003	570.91077	1263.76147	1341.73853	8.31413	1210.09692	1264.29675				14.34880	1066.29138	1457.34741	422.37512	977.88196	1511.82471	145.15685	977.64856	1462.80823	359.04428	987.64496	1215.37122	475.00183	547.29498	1547.99951	162.98680	519.42383	1299.11426	473.50903	149.61430	1685.51733	282.36819	161.17398	1095.03516	
444	4.430	163.25609	1660.30139	1599.95483	491.17685	1193.35010	1551.22144							470.49109	1535.72986	1392.13672	61.88366	1472.07043	1375.97400	255.69577	1364.94861	1503.07544	263.14441	1530.51990	1270.30786	571.57867	1262.74268	1357.05835	11.36279	1208.28455	1269.53210				11.47682	1064.37073	1462.04285	421.22906	976.97583	1524.58411	144.26714	977.17859	1473.13623	361.50037	985.71350	1226.96606	471.36267	545.52124	1564.10229	166.98396	519.63000	1306.50757	467.85760	145.54758	1693.42151	282.13107	164.15361	1097.85449	
445	4.440	159.83548	1658.94043	1609.09509	489.91061	1194.81250	1565.41467							470.75677	1535.21899	1404.45715	62.50905	1470.13916	1383.24463	254.26147	1363.78503	1514.07874	265.47952	1528.12866	1279.87561	571.92065	1262.42102	1371.00623	14.47666	1206.15527	1274.98877				8.05089	1061.75745	1465.40466	419.48352	976.18530	1537.48169	143.97852	975.66589	1482.44373	364.50452	984.04852	1237.72852	466.50189	543.20959	1580.01563	170.63728	520.18219	1314.60132	464.05228	141.60387	1700.41187	282.07709	167.87314	1101.58630	
446	4.450	156.63834	1656.98828	1617.70874	485.34406	1193.28955	1577.23535							470.56866	1534.59363	1416.28821	63.32837	1468.05200	1389.00500	252.92108	1362.96631	1524.11755	266.76617	1525.96277	1289.55017	572.44672	1260.85156	1384.90112	17.85779	1204.02490	1280.35364				4.93365	1060.64661	1471.16931	418.52039	975.44183	1550.35645	143.13832	974.59613	1493.45715	367.10364	981.81378	1249.14038	462.13467	540.89655	1596.18726	174.95586	520.55792	1323.41467	461.96246	139.11722	1706.94458	281.03101	172.20900	1105.33997	
447	4.460	153.57938	1654.69165	1624.68384	482.09323	1193.69446	1590.02515							471.36050	1533.57996	1429.35681	64.19685	1465.76929	1394.97388	251.32841	1361.73059	1534.67090	268.65948	1523.61914	1299.16199	573.08002	1259.98157	1400.38684	21.07619	1201.63281	1285.83643				1.24691	1058.96997	1475.84753	416.90204	974.63995	1563.91199	142.11784	973.27161	1504.97705	369.84406	979.75171	1261.10437	457.44662	538.15289	1612.53149	179.79771	520.52106	1332.95288	459.72067	136.83658	1712.51453	281.20300	175.64334	1109.86255	
